<?xml version="1.0" encoding="UTF-8" standalone="no"?>
<!-- Created with Inkscape (http://www.inkscape.org/) -->

<svg
   xmlns:dc="http://purl.org/dc/elements/1.1/"
   xmlns:cc="http://creativecommons.org/ns#"
   xmlns:rdf="http://www.w3.org/1999/02/22-rdf-syntax-ns#"
   xmlns:svg="http://www.w3.org/2000/svg"
   xmlns="http://www.w3.org/2000/svg"
   xmlns:sodipodi="http://sodipodi.sourceforge.net/DTD/sodipodi-0.dtd"
   xmlns:inkscape="http://www.inkscape.org/namespaces/inkscape"
   width="24"
   height="24"
   id="svg2"
   version="1.1"
   inkscape:version="0.48.4 r9939"
   inkscape:export-filename="/home/bruce/status-hdpi-v11.png"
   inkscape:export-xdpi="135"
   inkscape:export-ydpi="135"
   sodipodi:docname="status-v11.svg">
  <defs
     id="defs4" />
  <sodipodi:namedview
     id="base"
     pagecolor="#000000"
     bordercolor="#666666"
     borderopacity="1.0"
     inkscape:pageopacity="1"
     inkscape:pageshadow="2"
     inkscape:zoom="21.5"
     inkscape:cx="1.4883721"
     inkscape:cy="12"
     inkscape:document-units="px"
     inkscape:current-layer="g4650"
     showgrid="false"
     showguides="true"
     inkscape:guide-bbox="true"
     inkscape:window-width="1920"
     inkscape:window-height="1023"
     inkscape:window-x="0"
     inkscape:window-y="27"
     inkscape:window-maximized="1">
    <sodipodi:guide
       orientation="0,1"
       position="11.782946,31"
       id="guide3052" />
  </sodipodi:namedview>
  <metadata
     id="metadata7">
    <rdf:RDF>
      <cc:Work
         rdf:about="">
        <dc:format>image/svg+xml</dc:format>
        <dc:type
           rdf:resource="http://purl.org/dc/dcmitype/StillImage" />
        <dc:title />
      </cc:Work>
    </rdf:RDF>
  </metadata>
  <g
     inkscape:label="Layer 1"
     inkscape:groupmode="layer"
     id="layer1"
     transform="translate(0,-1028.3622)">
    <g
       id="g4650"
       transform="translate(-20.872436,759.62286)">
      <path
         style="fill:#000000"
         d=""
         id="path5143"
         inkscape:connector-curvature="0" />
      <path
         id="path5236"
         style="fill:#ffffff;fill-opacity:1;fill-rule:nonzero;stroke:none"
         d="m 39.235419,274.2798 c -0.239597,-0.23953 -0.627925,-0.23951 -0.867408,9e-5 -0.239713,0.23933 -0.239368,0.62799 2.68e-4,0.86751 l 1.816793,1.81619 c 0.239788,0.23982 0.627676,0.23955 0.867446,-7e-5 0.239484,-0.23955 0.239692,-0.62747 -2.49e-4,-0.86752 l -1.81685,-1.8162 z m -5.26403,4.56165 2.815686,2.81435 c 0.255853,0.25628 0.66963,0.25584 0.925615,-3e-5 l 0.315278,-0.31502 0.961482,0.96076 c 0.239196,0.23931 0.628267,0.23935 0.867255,3.7e-4 0.239693,-0.2397 0.239159,-0.62858 -1.9e-4,-0.86804 l -0.961157,-0.96069 0.585496,-0.58573 0.961329,0.96083 c 0.239101,0.23921 0.628573,0.23944 0.867217,2e-5 0.239826,-0.23952 0.239407,-0.62852 -7.7e-5,-0.86792 l -0.961079,-0.96055 0.316004,-0.31651 c 0.255394,-0.2552 0.256099,-0.66984 9.6e-5,-0.92596 l -2.815534,-2.8146 -3.877421,3.87872 z m 1.968901,-3.68699 c -0.09023,0.0905 -0.237002,0.0908 -0.327622,4e-5 -0.08946,-0.09 -0.09044,-0.23724 -2.29e-4,-0.32804 0.09009,-0.0897 0.237842,-0.0892 0.3277,7.8e-4 0.09066,0.0901 0.09047,0.23694 1.52e-4,0.32722 m -1.778829,1.77946 c -0.09018,0.0898 -0.236622,0.0899 -0.326994,-4e-4 -0.08997,-0.09 -0.09085,-0.23719 -5.52e-4,-0.32743 0.09051,-0.0907 0.237862,-0.0899 0.327947,-5e-5 0.09031,0.0903 0.09027,0.23711 -4.01e-4,0.32788 m 0.992729,-2.70141 -0.250128,-0.85564 c -0.01274,-0.045 -0.06013,-0.0713 -0.105748,-0.0584 -0.04516,0.0138 -0.07103,0.061 -0.05755,0.10564 l 0.252857,0.86446 c -0.371865,0.1429 -0.72404,0.36651 -1.028387,0.67156 -0.304139,0.30363 -0.527977,0.65545 -0.670374,1.02555 l -0.863325,-0.25107 c -0.04535,-0.0136 -0.09258,0.0126 -0.105485,0.0575 -0.01363,0.0453 0.01248,0.0929 0.05764,0.10542 l 0.85537,0.24956 c -0.288188,0.90208 -0.105817,1.8886 0.565483,2.55931 l 3.906934,-3.90774 c -0.670793,-0.67102 -1.655377,-0.85289 -2.557296,-0.56631 m -1.866816,5.12917 c -0.239654,0.23941 -0.239255,0.62808 2e-5,0.86747 l 1.816775,1.81613 c 0.240208,0.24008 0.628191,0.23964 0.867713,6e-5 0.239711,-0.23968 0.239998,-0.62774 -2.48e-4,-0.86749 l -1.816679,-1.81675 c -0.239368,-0.23918 -0.628173,-0.23915 -0.86758,5.8e-4 m 9.038191,-9.42159 c 0,0 -2.335016,0.88524 -3.065104,1.03125 -0.730089,0.14602 -2.0625,0.51563 -2.0625,0.51563 0,0 -0.95596,-0.41701 -2.148438,-0.83073 -1.192478,-0.41372 -2.893229,-0.54427 -2.893229,-0.54427 0,0 -0.294571,0.36402 -2.119792,0.80208 -1.82522,0.43806 -2.692708,0.54427 -2.692708,0.54427 0,0 -1.799617,-0.87382 -3.065104,-1.11719 -0.790929,-0.1521 -1.505158,-0.19933 -1.947917,-0.20052 -0.265655,-6.8e-4 -0.430955,0.0194 -0.458333,0.0287 0,0 0.732117,1.25687 1.145833,2.69271 0.413717,1.43584 0.601563,2.49219 0.601563,2.49219 0,0 -0.534385,1.2381 -0.802084,2.40625 -0.267698,1.16814 -0.54427,2.23437 -0.54427,2.23437 0,0 0.547313,1.55904 0.88802,2.92188 0.340708,1.36284 0.372396,2.3776 0.372396,2.3776 0,0 -0.404084,0.98613 -0.744791,2.34896 -0.340708,1.36284 -0.48698,3.00781 -0.48698,3.00781 0,0 0.376032,-0.0699 1.059896,-0.0573 -0.04363,-0.11347 -0.09097,-0.22039 -0.114583,-0.34375 l 0.114583,-0.0859 0.02865,-0.0287 c -0.0031,-0.007 0.0029,-0.0214 0,-0.0287 -0.03959,-0.10176 -0.06068,-0.21272 -0.05729,-0.31511 l 6.044271,-6.01562 c 0.08212,0.006 0.160411,0.0172 0.257813,0.0573 l 0.02865,0 0.257812,-0.25781 c 0.170643,0.0329 0.299668,0.0859 0.429688,0.14323 l 1.260416,-1.28907 c -0.289488,-0.35339 -0.565805,-0.72571 -0.773437,-1.11718 l 0.229166,-0.14323 c -0.0041,-0.008 0.0041,-0.0204 0,-0.0287 -0.09383,-0.18036 -0.18182,-0.35767 -0.257813,-0.54427 -0.04621,-0.11395 -0.103702,-0.22789 -0.143229,-0.34375 -0.0028,-0.008 0.0028,-0.0205 0,-0.0287 -0.105258,-0.31269 -0.172444,-0.65146 -0.229167,-0.97395 -0.05245,-0.29823 -0.103638,-0.58625 -0.114583,-0.88803 -0.0017,-0.0475 7.29e-4,-0.0957 0,-0.14322 -4.06e-4,-0.0298 0,-0.0561 0,-0.0859 0,-0.27618 0.02256,-0.55632 0.05729,-0.83073 0.0023,-0.0186 -0.0025,-0.0387 0,-0.0573 0.04351,-0.32172 0.109185,-0.63168 0.200521,-0.94531 0.0025,-0.008 -0.0025,-0.0204 0,-0.0287 0.09059,-0.30607 0.207518,-0.62391 0.34375,-0.91667 0.0238,-0.0517 0.06072,-0.0922 0.08594,-0.14323 0.12325,-0.24844 0.244294,-0.48178 0.401041,-0.71614 0.176295,-0.26359 0.382897,-0.53219 0.601563,-0.77344 0.01758,-0.0202 0.03943,-0.0373 0.05729,-0.0573 0.05543,-0.0597 0.113813,-0.11385 0.171875,-0.17188 1.278594,-1.27859 2.936176,-1.91927 4.611979,-1.91927 1.675802,0 3.362031,0.64068 4.640625,1.91927 0.952038,0.95204 1.561534,2.12441 1.804687,3.35157 0.235204,-0.60927 0.572917,-1.48959 0.572917,-1.48959 0,0 -0.448447,-1.48173 -0.716146,-2.89323 -0.267699,-1.4115 -0.830729,-2.52083 -0.830729,-2.52083 z m 0.286458,11.31511 c -0.292747,0.53575 -0.663349,1.03574 -1.117187,1.48958 -0.07742,0.0775 -0.148922,0.15647 -0.229167,0.22917 -0.241252,0.21867 -0.509849,0.42526 -0.773437,0.60156 -0.191716,0.12822 -0.371575,0.23794 -0.572917,0.34375 -0.09693,0.0508 -0.187612,0.0977 -0.286458,0.14323 -0.09907,0.0461 -0.214308,0.0737 -0.315105,0.11458 -0.207128,0.0829 -0.417196,0.16839 -0.630208,0.22917 -0.313626,0.0913 -0.623585,0.15698 -0.945312,0.20052 -0.0092,9.1e-4 -0.0194,-9.2e-4 -0.02865,0 -0.0093,9.1e-4 -0.01936,-9.2e-4 -0.02865,0 -0.274406,0.0347 -0.554545,0.0573 -0.830729,0.0573 -0.07962,0 -0.149591,0.003 -0.229167,0 -0.301778,-0.0109 -0.589791,-0.0622 -0.888021,-0.11458 -0.322496,-0.0568 -0.661266,-0.12391 -0.973958,-0.22917 -0.316609,-0.10658 -0.616171,-0.2447 -0.916667,-0.40104 l -0.02865,0 -0.143229,0.22916 c -0.391472,-0.20763 -0.763796,-0.48395 -1.117187,-0.77343 l -1.260417,1.26041 c 0.05869,0.13144 0.09136,0.2687 0.114583,0.42969 l -0.286458,0.28646 c 0.03286,0.0823 0.06527,0.17485 0.08594,0.25781 l -5.270834,5.29948 c 1.091218,0.19603 2.291667,0.42969 2.291667,0.42969 0,0 1.22518,-0.26086 2.320312,-0.60156 1.095133,-0.34071 1.604167,-0.63021 1.604167,-0.63021 0,0 0.522216,0.0418 2.177083,0.60156 1.654868,0.55974 2.835938,0.83073 2.835938,0.83073 0,0 1.283992,-0.28089 2.549479,-0.57292 1.265487,-0.29203 2.578125,-0.77343 2.578125,-0.77343 0,0 -0.08568,-0.47938 0.401042,-2.37761 0.486725,-1.89823 0.859375,-2.72135 0.859375,-2.72135 0,0 -0.05603,-0.43476 -0.372396,-1.91927 -0.150794,-0.70758 -0.37524,-1.39048 -0.572917,-1.91927 z"
         inkscape:connector-curvature="0" />
      <path
         inkscape:connector-curvature="0"
         id="path5236-0"
         style="fill:#f00000;fill-opacity:0;fill-rule:nonzero;stroke:none"
         d="m 40.813875,266.69256 c -0.261378,-0.2613 -0.685009,-0.26128 -0.946263,10e-5 -0.261505,0.26109 -0.261129,0.68508 2.92e-4,0.94638 l 1.981956,1.98129 c 0.261587,0.26163 0.684738,0.26133 0.946305,-7e-5 0.261255,-0.26133 0.261482,-0.68451 -2.71e-4,-0.94639 l -1.982019,-1.98131 z m -5.742578,4.97635 3.071658,3.0702 c 0.279112,0.27958 0.730505,0.2791 1.009761,-3e-5 l 0.34394,-0.34366 1.048889,1.0481 c 0.260941,0.26107 0.685383,0.26111 0.946097,4e-4 0.261483,-0.26149 0.260901,-0.68572 -2.08e-4,-0.94695 l -1.048534,-1.04802 0.638722,-0.63898 1.048723,1.04818 c 0.260837,0.26095 0.685716,0.2612 0.946055,2e-5 0.261628,-0.2613 0.261171,-0.68566 -8.4e-5,-0.94682 l -1.04845,-1.04788 0.344732,-0.34528 c 0.278611,-0.2784 0.279381,-0.73074 1.04e-4,-1.01014 l -3.071491,-3.07047 -4.229914,4.23133 z m 2.147892,-4.02217 c -0.09843,0.0987 -0.258548,0.099 -0.357406,4e-5 -0.09759,-0.0982 -0.09866,-0.25881 -2.5e-4,-0.35786 0.09828,-0.0978 0.259463,-0.0973 0.35749,8.5e-4 0.0989,0.0983 0.09869,0.25848 1.66e-4,0.35697 m -1.940541,1.94123 c -0.09838,0.098 -0.258133,0.0981 -0.356719,-4.4e-4 -0.09815,-0.0982 -0.09911,-0.25875 -6.04e-4,-0.3572 0.09874,-0.0989 0.259486,-0.0981 0.357761,-5e-5 0.09852,0.0985 0.09848,0.25866 -4.38e-4,0.35769 m 1.082978,-2.94699 -0.272867,-0.93343 c -0.0139,-0.0491 -0.0656,-0.0778 -0.115362,-0.0637 -0.04927,0.0151 -0.07749,0.0665 -0.06278,0.11525 l 0.275844,0.94304 c -0.40567,0.15589 -0.789861,0.39983 -1.121876,0.73261 -0.331788,0.33124 -0.575975,0.71504 -0.731317,1.11879 l -0.941809,-0.2739 c -0.04947,-0.0148 -0.101,0.0137 -0.115075,0.0627 -0.01487,0.0494 0.01361,0.10133 0.06288,0.115 l 0.93313,0.27225 c -0.314387,0.98408 -0.115437,2.06029 0.616892,2.79197 l 4.262109,-4.26299 c -0.731774,-0.73202 -1.805866,-0.93042 -2.789778,-0.61779 m -2.036526,5.59546 c -0.261441,0.26117 -0.261005,0.68517 2.1e-5,0.94633 l 1.981936,1.98123 c 0.262045,0.26191 0.685301,0.26143 0.946596,7e-5 0.261504,-0.26147 0.261816,-0.68481 -2.7e-4,-0.94636 l -1.981832,-1.98191 c -0.261129,-0.26092 -0.685279,-0.26089 -0.946451,6.4e-4 m 9.859845,-10.2781 c 0,0 -2.54729,0.96571 -3.34375,1.125 -0.79646,0.15929 -2.25,0.5625 -2.25,0.5625 0,0 -1.042865,-0.45492 -2.34375,-0.90625 -1.300885,-0.45133 -3.15625,-0.59375 -3.15625,-0.59375 0,0 -0.32135,0.39712 -2.3125,0.875 -1.99115,0.47788 -2.9375,0.59375 -2.9375,0.59375 0,0 -1.963219,-0.95326 -3.34375,-1.21875 -0.862832,-0.16593 -1.64199,-0.21745 -2.125,-0.21875 -0.289806,-7.4e-4 -0.470133,0.0212 -0.5,0.0313 0,0 0.798673,1.37113 1.25,2.9375 0.451327,1.56637 0.65625,2.71875 0.65625,2.71875 0,0 -0.582965,1.35066 -0.875,2.625 -0.292035,1.27434 -0.59375,2.4375 -0.59375,2.4375 0,0 0.597069,1.70077 0.96875,3.1875 0.371681,1.48673 0.40625,2.59375 0.40625,2.59375 0,0 -0.440819,1.07577 -0.8125,2.5625 -0.371681,1.48673 -0.53125,3.28125 -0.53125,3.28125 0,0 0.410216,-0.0763 1.15625,-0.0625 -0.0476,-0.12379 -0.09924,-0.24043 -0.125,-0.375 l 0.125,-0.0937 0.03125,-0.0313 c -0.0034,-0.008 0.0032,-0.0233 0,-0.0313 -0.04319,-0.11101 -0.0662,-0.23206 -0.0625,-0.34375 l 6.59375,-6.5625 c 0.08959,0.006 0.174994,0.0188 0.28125,0.0625 l 0.03125,0 0.28125,-0.28125 c 0.186156,0.0359 0.32691,0.0937 0.46875,0.15625 l 1.375,-1.40625 c -0.315805,-0.38552 -0.617242,-0.79169 -0.84375,-1.21875 l 0.25,-0.15625 c -0.0045,-0.009 0.0045,-0.0223 0,-0.0313 -0.102361,-0.19675 -0.19835,-0.39018 -0.28125,-0.59375 -0.05041,-0.1243 -0.11313,-0.2486 -0.15625,-0.375 -0.0031,-0.009 0.003,-0.0223 0,-0.0313 -0.114827,-0.34112 -0.18812,-0.71069 -0.25,-1.0625 -0.05722,-0.32534 -0.11306,-0.63954 -0.125,-0.96875 -0.0019,-0.0518 7.96e-4,-0.10445 0,-0.15625 -4.43e-4,-0.0325 0,-0.0612 0,-0.0937 0,-0.30129 0.02461,-0.6069 0.0625,-0.90625 0.0025,-0.0203 -0.0027,-0.0422 0,-0.0625 0.04747,-0.35097 0.11911,-0.68911 0.21875,-1.03125 0.0027,-0.009 -0.0027,-0.0223 0,-0.0313 0.09882,-0.33389 0.226383,-0.68063 0.375,-1 0.02596,-0.0564 0.06624,-0.10055 0.09375,-0.15625 0.134455,-0.27103 0.266503,-0.52558 0.4375,-0.78125 0.192321,-0.28755 0.417705,-0.58057 0.65625,-0.84375 0.01918,-0.022 0.04301,-0.0407 0.0625,-0.0625 0.06047,-0.0651 0.12416,-0.1242 0.1875,-0.1875 1.39483,-1.39483 3.203102,-2.09375 5.03125,-2.09375 1.828148,0 3.66767,0.69892 5.0625,2.09375 1.038587,1.03859 1.703492,2.31754 1.96875,3.65625 0.256586,-0.66465 0.625,-1.625 0.625,-1.625 0,0 -0.489215,-1.61643 -0.78125,-3.15625 -0.292035,-1.53982 -0.90625,-2.75 -0.90625,-2.75 z m 0.3125,12.34375 c -0.319361,0.58446 -0.723654,1.1299 -1.21875,1.625 -0.08446,0.0845 -0.16246,0.1707 -0.25,0.25 -0.263184,0.23855 -0.556199,0.46393 -0.84375,0.65625 -0.209144,0.13988 -0.405354,0.25957 -0.625,0.375 -0.105743,0.0554 -0.204668,0.10655 -0.3125,0.15625 -0.108075,0.0503 -0.23379,0.0804 -0.34375,0.125 -0.225958,0.0904 -0.455123,0.1837 -0.6875,0.25 -0.342137,0.0996 -0.680275,0.17125 -1.03125,0.21875 -0.01008,10e-4 -0.02116,-0.001 -0.03125,0 -0.01013,10e-4 -0.02112,-0.001 -0.03125,0 -0.299352,0.0379 -0.604958,0.0625 -0.90625,0.0625 -0.08686,0 -0.16319,0.003 -0.25,0 -0.329213,-0.0119 -0.643408,-0.0678 -0.96875,-0.125 -0.351814,-0.0619 -0.721381,-0.13517 -1.0625,-0.25 -0.345392,-0.11627 -0.672186,-0.26695 -1,-0.4375 l -0.03125,0 -0.15625,0.25 c -0.427061,-0.22651 -0.833232,-0.52795 -1.21875,-0.84375 l -1.375,1.375 c 0.06402,0.14338 0.09967,0.29312 0.125,0.46875 l -0.3125,0.3125 c 0.03585,0.0898 0.0712,0.19075 0.09375,0.28125 l -5.75,5.78125 c 1.190419,0.21385 2.5,0.46875 2.5,0.46875 0,0 1.33656,-0.28457 2.53125,-0.65625 1.19469,-0.37168 1.75,-0.6875 1.75,-0.6875 0,0 0.56969,0.0456 2.375,0.65625 1.80531,0.61062 3.09375,0.90625 3.09375,0.90625 0,0 1.400719,-0.30642 2.78125,-0.625 1.380531,-0.31858 2.8125,-0.84375 2.8125,-0.84375 0,0 -0.09347,-0.52295 0.4375,-2.59375 0.530973,-2.0708 0.9375,-2.96875 0.9375,-2.96875 0,0 -0.06112,-0.47428 -0.40625,-2.09375 -0.164503,-0.7719 -0.409352,-1.51688 -0.625,-2.09375 z" />
    </g>
  </g>
</svg>
