<?xml version="1.0" encoding="UTF-8" standalone="no"?>
<!-- Created with Inkscape (http://www.inkscape.org/) -->

<svg
   xmlns:dc="http://purl.org/dc/elements/1.1/"
   xmlns:cc="http://creativecommons.org/ns#"
   xmlns:rdf="http://www.w3.org/1999/02/22-rdf-syntax-ns#"
   xmlns:svg="http://www.w3.org/2000/svg"
   xmlns="http://www.w3.org/2000/svg"
   xmlns:xlink="http://www.w3.org/1999/xlink"
   xmlns:sodipodi="http://sodipodi.sourceforge.net/DTD/sodipodi-0.dtd"
   xmlns:inkscape="http://www.inkscape.org/namespaces/inkscape"
   width="24"
   height="38"
   id="svg2"
   version="1.1"
   inkscape:version="0.48.4 r9939"
   inkscape:export-filename="/home/bruce/status-hdpi-v9.png"
   inkscape:export-xdpi="90"
   inkscape:export-ydpi="90"
   sodipodi:docname="status-v9.svg">
  <defs
     id="defs4">
    <linearGradient
       id="linearGradient5333">
      <stop
         style="stop-color:#828282;stop-opacity:1;"
         offset="0"
         id="stop5335" />
      <stop
         style="stop-color:#919191;stop-opacity:1;"
         offset="1"
         id="stop5337" />
    </linearGradient>
    <linearGradient
       inkscape:collect="always"
       xlink:href="#linearGradient5333"
       id="linearGradient5339"
       x1="20.872436"
       y1="273.73929"
       x2="44.872436"
       y2="273.73929"
       gradientUnits="userSpaceOnUse" />
  </defs>
  <sodipodi:namedview
     id="base"
     pagecolor="#000000"
     bordercolor="#666666"
     borderopacity="1.0"
     inkscape:pageopacity="1"
     inkscape:pageshadow="2"
     inkscape:zoom="21.899065"
     inkscape:cx="12.591328"
     inkscape:cy="19.000025"
     inkscape:document-units="px"
     inkscape:current-layer="g4650"
     showgrid="false"
     showguides="true"
     inkscape:guide-bbox="true"
     inkscape:window-width="1920"
     inkscape:window-height="1023"
     inkscape:window-x="0"
     inkscape:window-y="27"
     inkscape:window-maximized="1">
    <sodipodi:guide
       orientation="0,1"
       position="5.375969,7"
       id="guide3050" />
    <sodipodi:guide
       orientation="0,1"
       position="11.782946,31"
       id="guide3052" />
  </sodipodi:namedview>
  <metadata
     id="metadata7">
    <rdf:RDF>
      <cc:Work
         rdf:about="">
        <dc:format>image/svg+xml</dc:format>
        <dc:type
           rdf:resource="http://purl.org/dc/dcmitype/StillImage" />
        <dc:title />
      </cc:Work>
    </rdf:RDF>
  </metadata>
  <g
     inkscape:label="Layer 1"
     inkscape:groupmode="layer"
     id="layer1"
     transform="translate(0,-1014.3622)">
    <g
       id="g4650"
       transform="translate(-20.872436,759.62286)">
      <path
         style="fill:#000000"
         d=""
         id="path5143"
         inkscape:connector-curvature="0" />
      <path
         id="path5236"
         style="fill:url(#linearGradient5339);fill-opacity:1;fill-rule:nonzero;stroke:none"
         d="m 39.813875,266.69251 c -0.261378,-0.2613 -0.685009,-0.26128 -0.946263,10e-5 -0.261505,0.26109 -0.261129,0.68508 2.92e-4,0.94638 l 1.981956,1.98129 c 0.261587,0.26163 0.684738,0.26133 0.946305,-7e-5 0.261255,-0.26133 0.261482,-0.68451 -2.71e-4,-0.94639 l -1.982019,-1.98131 z m -5.742578,4.97635 3.071658,3.0702 c 0.279112,0.27958 0.730505,0.2791 1.009761,-3e-5 l 0.34394,-0.34366 1.048889,1.0481 c 0.260941,0.26107 0.685383,0.26111 0.946097,4e-4 0.261483,-0.26149 0.260901,-0.68572 -2.08e-4,-0.94695 l -1.048534,-1.04802 0.638722,-0.63898 1.048723,1.04818 c 0.260837,0.26095 0.685716,0.2612 0.946055,2e-5 0.261628,-0.2613 0.261171,-0.68566 -8.4e-5,-0.94682 l -1.04845,-1.04788 0.344732,-0.34528 c 0.278611,-0.2784 0.279381,-0.73074 1.04e-4,-1.01014 l -3.071491,-3.07047 -4.229914,4.23133 z m 2.147892,-4.02217 c -0.09843,0.0987 -0.258548,0.099 -0.357406,4e-5 -0.09759,-0.0982 -0.09866,-0.25881 -2.5e-4,-0.35786 0.09828,-0.0978 0.259463,-0.0973 0.35749,8.5e-4 0.0989,0.0983 0.09869,0.25848 1.66e-4,0.35697 m -1.940541,1.94123 c -0.09838,0.098 -0.258133,0.0981 -0.356719,-4.4e-4 -0.09815,-0.0982 -0.09911,-0.25875 -6.04e-4,-0.3572 0.09874,-0.0989 0.259486,-0.0981 0.357761,-5e-5 0.09852,0.0985 0.09848,0.25866 -4.38e-4,0.35769 m 1.082978,-2.94699 -0.272867,-0.93343 c -0.0139,-0.0491 -0.0656,-0.0778 -0.115362,-0.0637 -0.04927,0.0151 -0.07749,0.0665 -0.06278,0.11525 l 0.275844,0.94304 c -0.40567,0.15589 -0.789861,0.39983 -1.121876,0.73261 -0.331788,0.33124 -0.575975,0.71504 -0.731317,1.11879 l -0.941809,-0.2739 c -0.04947,-0.0148 -0.101,0.0137 -0.115075,0.0627 -0.01487,0.0494 0.01361,0.10133 0.06288,0.115 l 0.93313,0.27225 c -0.314387,0.98408 -0.115437,2.06029 0.616892,2.79197 l 4.262109,-4.26299 c -0.731774,-0.73202 -1.805866,-0.93042 -2.789778,-0.61779 m -2.036526,5.59546 c -0.261441,0.26117 -0.261005,0.68517 2.1e-5,0.94633 l 1.981936,1.98123 c 0.262045,0.26191 0.685301,0.26143 0.946596,7e-5 0.261504,-0.26147 0.261816,-0.68481 -2.7e-4,-0.94636 l -1.981832,-1.98191 c -0.261129,-0.26092 -0.685279,-0.26089 -0.946451,6.4e-4 m 9.859845,-10.2781 c 0,0 -2.54729,0.96571 -3.34375,1.125 -0.79646,0.15929 -2.25,0.5625 -2.25,0.5625 0,0 -1.042865,-0.45492 -2.34375,-0.90625 -1.300885,-0.45133 -3.15625,-0.59375 -3.15625,-0.59375 0,0 -0.32135,0.39712 -2.3125,0.875 -1.99115,0.47788 -2.9375,0.59375 -2.9375,0.59375 0,0 -1.963219,-0.95326 -3.34375,-1.21875 -0.862832,-0.16593 -1.64199,-0.21745 -2.125,-0.21875 -0.289806,-7.4e-4 -0.470133,0.0212 -0.5,0.0313 0,0 0.798673,1.37113 1.25,2.9375 0.451327,1.56637 0.65625,2.71875 0.65625,2.71875 0,0 -0.582965,1.35066 -0.875,2.625 -0.292035,1.27434 -0.59375,2.4375 -0.59375,2.4375 0,0 0.597069,1.70077 0.96875,3.1875 0.371681,1.48673 0.40625,2.59375 0.40625,2.59375 0,0 -0.440819,1.07577 -0.8125,2.5625 -0.371681,1.48673 -0.53125,3.28125 -0.53125,3.28125 0,0 0.410216,-0.0763 1.15625,-0.0625 -0.0476,-0.12379 -0.09924,-0.24043 -0.125,-0.375 l 0.125,-0.0937 0.03125,-0.0313 c -0.0034,-0.008 0.0032,-0.0233 0,-0.0313 -0.04319,-0.11101 -0.0662,-0.23206 -0.0625,-0.34375 l 6.59375,-6.5625 c 0.08959,0.006 0.174994,0.0188 0.28125,0.0625 l 0.03125,0 0.28125,-0.28125 c 0.186156,0.0359 0.32691,0.0937 0.46875,0.15625 l 1.375,-1.40625 c -0.315805,-0.38552 -0.617242,-0.79169 -0.84375,-1.21875 l 0.25,-0.15625 c -0.0045,-0.009 0.0045,-0.0223 0,-0.0313 -0.102361,-0.19675 -0.19835,-0.39018 -0.28125,-0.59375 -0.05041,-0.1243 -0.11313,-0.2486 -0.15625,-0.375 -0.0031,-0.009 0.003,-0.0223 0,-0.0313 -0.114827,-0.34112 -0.18812,-0.71069 -0.25,-1.0625 -0.05722,-0.32534 -0.11306,-0.63954 -0.125,-0.96875 -0.0019,-0.0518 7.96e-4,-0.10445 0,-0.15625 -4.43e-4,-0.0325 0,-0.0612 0,-0.0937 0,-0.30129 0.02461,-0.6069 0.0625,-0.90625 0.0025,-0.0203 -0.0027,-0.0422 0,-0.0625 0.04747,-0.35097 0.11911,-0.68911 0.21875,-1.03125 0.0027,-0.009 -0.0027,-0.0223 0,-0.0313 0.09882,-0.33389 0.226383,-0.68063 0.375,-1 0.02596,-0.0564 0.06624,-0.10055 0.09375,-0.15625 0.134455,-0.27103 0.266503,-0.52558 0.4375,-0.78125 0.192321,-0.28755 0.417705,-0.58057 0.65625,-0.84375 0.01918,-0.022 0.04301,-0.0407 0.0625,-0.0625 0.06047,-0.0651 0.12416,-0.1242 0.1875,-0.1875 1.39483,-1.39483 3.203102,-2.09375 5.03125,-2.09375 1.828148,0 3.66767,0.69892 5.0625,2.09375 1.038587,1.03859 1.703492,2.31754 1.96875,3.65625 0.256586,-0.66465 0.625,-1.625 0.625,-1.625 0,0 -0.489215,-1.61643 -0.78125,-3.15625 -0.292035,-1.53982 -0.90625,-2.75 -0.90625,-2.75 z m 0.3125,12.34375 c -0.319361,0.58446 -0.723654,1.1299 -1.21875,1.625 -0.08446,0.0845 -0.16246,0.1707 -0.25,0.25 -0.263184,0.23855 -0.556199,0.46393 -0.84375,0.65625 -0.209144,0.13988 -0.405354,0.25957 -0.625,0.375 -0.105743,0.0554 -0.204668,0.10655 -0.3125,0.15625 -0.108075,0.0503 -0.23379,0.0804 -0.34375,0.125 -0.225958,0.0904 -0.455123,0.1837 -0.6875,0.25 -0.342137,0.0996 -0.680275,0.17125 -1.03125,0.21875 -0.01008,10e-4 -0.02116,-0.001 -0.03125,0 -0.01013,10e-4 -0.02112,-0.001 -0.03125,0 -0.299352,0.0379 -0.604958,0.0625 -0.90625,0.0625 -0.08686,0 -0.16319,0.003 -0.25,0 -0.329213,-0.0119 -0.643408,-0.0678 -0.96875,-0.125 -0.351814,-0.0619 -0.721381,-0.13517 -1.0625,-0.25 -0.345392,-0.11627 -0.672186,-0.26695 -1,-0.4375 l -0.03125,0 -0.15625,0.25 c -0.427061,-0.22651 -0.833232,-0.52795 -1.21875,-0.84375 l -1.375,1.375 c 0.06402,0.14338 0.09967,0.29312 0.125,0.46875 l -0.3125,0.3125 c 0.03585,0.0898 0.0712,0.19075 0.09375,0.28125 l -5.75,5.78125 c 1.190419,0.21385 2.5,0.46875 2.5,0.46875 0,0 1.33656,-0.28457 2.53125,-0.65625 1.19469,-0.37168 1.75,-0.6875 1.75,-0.6875 0,0 0.56969,0.0456 2.375,0.65625 1.80531,0.61062 3.09375,0.90625 3.09375,0.90625 0,0 1.400719,-0.30642 2.78125,-0.625 1.380531,-0.31858 2.8125,-0.84375 2.8125,-0.84375 0,0 -0.09347,-0.52295 0.4375,-2.59375 0.530973,-2.0708 0.9375,-2.96875 0.9375,-2.96875 0,0 -0.06112,-0.47428 -0.40625,-2.09375 -0.164503,-0.7719 -0.409352,-1.51688 -0.625,-2.09375 z" />
      <path
         inkscape:connector-curvature="0"
         id="path5236-0"
         style="fill:#f00000;fill-opacity:0;fill-rule:nonzero;stroke:none"
         d="m 40.813875,266.69256 c -0.261378,-0.2613 -0.685009,-0.26128 -0.946263,10e-5 -0.261505,0.26109 -0.261129,0.68508 2.92e-4,0.94638 l 1.981956,1.98129 c 0.261587,0.26163 0.684738,0.26133 0.946305,-7e-5 0.261255,-0.26133 0.261482,-0.68451 -2.71e-4,-0.94639 l -1.982019,-1.98131 z m -5.742578,4.97635 3.071658,3.0702 c 0.279112,0.27958 0.730505,0.2791 1.009761,-3e-5 l 0.34394,-0.34366 1.048889,1.0481 c 0.260941,0.26107 0.685383,0.26111 0.946097,4e-4 0.261483,-0.26149 0.260901,-0.68572 -2.08e-4,-0.94695 l -1.048534,-1.04802 0.638722,-0.63898 1.048723,1.04818 c 0.260837,0.26095 0.685716,0.2612 0.946055,2e-5 0.261628,-0.2613 0.261171,-0.68566 -8.4e-5,-0.94682 l -1.04845,-1.04788 0.344732,-0.34528 c 0.278611,-0.2784 0.279381,-0.73074 1.04e-4,-1.01014 l -3.071491,-3.07047 -4.229914,4.23133 z m 2.147892,-4.02217 c -0.09843,0.0987 -0.258548,0.099 -0.357406,4e-5 -0.09759,-0.0982 -0.09866,-0.25881 -2.5e-4,-0.35786 0.09828,-0.0978 0.259463,-0.0973 0.35749,8.5e-4 0.0989,0.0983 0.09869,0.25848 1.66e-4,0.35697 m -1.940541,1.94123 c -0.09838,0.098 -0.258133,0.0981 -0.356719,-4.4e-4 -0.09815,-0.0982 -0.09911,-0.25875 -6.04e-4,-0.3572 0.09874,-0.0989 0.259486,-0.0981 0.357761,-5e-5 0.09852,0.0985 0.09848,0.25866 -4.38e-4,0.35769 m 1.082978,-2.94699 -0.272867,-0.93343 c -0.0139,-0.0491 -0.0656,-0.0778 -0.115362,-0.0637 -0.04927,0.0151 -0.07749,0.0665 -0.06278,0.11525 l 0.275844,0.94304 c -0.40567,0.15589 -0.789861,0.39983 -1.121876,0.73261 -0.331788,0.33124 -0.575975,0.71504 -0.731317,1.11879 l -0.941809,-0.2739 c -0.04947,-0.0148 -0.101,0.0137 -0.115075,0.0627 -0.01487,0.0494 0.01361,0.10133 0.06288,0.115 l 0.93313,0.27225 c -0.314387,0.98408 -0.115437,2.06029 0.616892,2.79197 l 4.262109,-4.26299 c -0.731774,-0.73202 -1.805866,-0.93042 -2.789778,-0.61779 m -2.036526,5.59546 c -0.261441,0.26117 -0.261005,0.68517 2.1e-5,0.94633 l 1.981936,1.98123 c 0.262045,0.26191 0.685301,0.26143 0.946596,7e-5 0.261504,-0.26147 0.261816,-0.68481 -2.7e-4,-0.94636 l -1.981832,-1.98191 c -0.261129,-0.26092 -0.685279,-0.26089 -0.946451,6.4e-4 m 9.859845,-10.2781 c 0,0 -2.54729,0.96571 -3.34375,1.125 -0.79646,0.15929 -2.25,0.5625 -2.25,0.5625 0,0 -1.042865,-0.45492 -2.34375,-0.90625 -1.300885,-0.45133 -3.15625,-0.59375 -3.15625,-0.59375 0,0 -0.32135,0.39712 -2.3125,0.875 -1.99115,0.47788 -2.9375,0.59375 -2.9375,0.59375 0,0 -1.963219,-0.95326 -3.34375,-1.21875 -0.862832,-0.16593 -1.64199,-0.21745 -2.125,-0.21875 -0.289806,-7.4e-4 -0.470133,0.0212 -0.5,0.0313 0,0 0.798673,1.37113 1.25,2.9375 0.451327,1.56637 0.65625,2.71875 0.65625,2.71875 0,0 -0.582965,1.35066 -0.875,2.625 -0.292035,1.27434 -0.59375,2.4375 -0.59375,2.4375 0,0 0.597069,1.70077 0.96875,3.1875 0.371681,1.48673 0.40625,2.59375 0.40625,2.59375 0,0 -0.440819,1.07577 -0.8125,2.5625 -0.371681,1.48673 -0.53125,3.28125 -0.53125,3.28125 0,0 0.410216,-0.0763 1.15625,-0.0625 -0.0476,-0.12379 -0.09924,-0.24043 -0.125,-0.375 l 0.125,-0.0937 0.03125,-0.0313 c -0.0034,-0.008 0.0032,-0.0233 0,-0.0313 -0.04319,-0.11101 -0.0662,-0.23206 -0.0625,-0.34375 l 6.59375,-6.5625 c 0.08959,0.006 0.174994,0.0188 0.28125,0.0625 l 0.03125,0 0.28125,-0.28125 c 0.186156,0.0359 0.32691,0.0937 0.46875,0.15625 l 1.375,-1.40625 c -0.315805,-0.38552 -0.617242,-0.79169 -0.84375,-1.21875 l 0.25,-0.15625 c -0.0045,-0.009 0.0045,-0.0223 0,-0.0313 -0.102361,-0.19675 -0.19835,-0.39018 -0.28125,-0.59375 -0.05041,-0.1243 -0.11313,-0.2486 -0.15625,-0.375 -0.0031,-0.009 0.003,-0.0223 0,-0.0313 -0.114827,-0.34112 -0.18812,-0.71069 -0.25,-1.0625 -0.05722,-0.32534 -0.11306,-0.63954 -0.125,-0.96875 -0.0019,-0.0518 7.96e-4,-0.10445 0,-0.15625 -4.43e-4,-0.0325 0,-0.0612 0,-0.0937 0,-0.30129 0.02461,-0.6069 0.0625,-0.90625 0.0025,-0.0203 -0.0027,-0.0422 0,-0.0625 0.04747,-0.35097 0.11911,-0.68911 0.21875,-1.03125 0.0027,-0.009 -0.0027,-0.0223 0,-0.0313 0.09882,-0.33389 0.226383,-0.68063 0.375,-1 0.02596,-0.0564 0.06624,-0.10055 0.09375,-0.15625 0.134455,-0.27103 0.266503,-0.52558 0.4375,-0.78125 0.192321,-0.28755 0.417705,-0.58057 0.65625,-0.84375 0.01918,-0.022 0.04301,-0.0407 0.0625,-0.0625 0.06047,-0.0651 0.12416,-0.1242 0.1875,-0.1875 1.39483,-1.39483 3.203102,-2.09375 5.03125,-2.09375 1.828148,0 3.66767,0.69892 5.0625,2.09375 1.038587,1.03859 1.703492,2.31754 1.96875,3.65625 0.256586,-0.66465 0.625,-1.625 0.625,-1.625 0,0 -0.489215,-1.61643 -0.78125,-3.15625 -0.292035,-1.53982 -0.90625,-2.75 -0.90625,-2.75 z m 0.3125,12.34375 c -0.319361,0.58446 -0.723654,1.1299 -1.21875,1.625 -0.08446,0.0845 -0.16246,0.1707 -0.25,0.25 -0.263184,0.23855 -0.556199,0.46393 -0.84375,0.65625 -0.209144,0.13988 -0.405354,0.25957 -0.625,0.375 -0.105743,0.0554 -0.204668,0.10655 -0.3125,0.15625 -0.108075,0.0503 -0.23379,0.0804 -0.34375,0.125 -0.225958,0.0904 -0.455123,0.1837 -0.6875,0.25 -0.342137,0.0996 -0.680275,0.17125 -1.03125,0.21875 -0.01008,10e-4 -0.02116,-0.001 -0.03125,0 -0.01013,10e-4 -0.02112,-0.001 -0.03125,0 -0.299352,0.0379 -0.604958,0.0625 -0.90625,0.0625 -0.08686,0 -0.16319,0.003 -0.25,0 -0.329213,-0.0119 -0.643408,-0.0678 -0.96875,-0.125 -0.351814,-0.0619 -0.721381,-0.13517 -1.0625,-0.25 -0.345392,-0.11627 -0.672186,-0.26695 -1,-0.4375 l -0.03125,0 -0.15625,0.25 c -0.427061,-0.22651 -0.833232,-0.52795 -1.21875,-0.84375 l -1.375,1.375 c 0.06402,0.14338 0.09967,0.29312 0.125,0.46875 l -0.3125,0.3125 c 0.03585,0.0898 0.0712,0.19075 0.09375,0.28125 l -5.75,5.78125 c 1.190419,0.21385 2.5,0.46875 2.5,0.46875 0,0 1.33656,-0.28457 2.53125,-0.65625 1.19469,-0.37168 1.75,-0.6875 1.75,-0.6875 0,0 0.56969,0.0456 2.375,0.65625 1.80531,0.61062 3.09375,0.90625 3.09375,0.90625 0,0 1.400719,-0.30642 2.78125,-0.625 1.380531,-0.31858 2.8125,-0.84375 2.8125,-0.84375 0,0 -0.09347,-0.52295 0.4375,-2.59375 0.530973,-2.0708 0.9375,-2.96875 0.9375,-2.96875 0,0 -0.06112,-0.47428 -0.40625,-2.09375 -0.164503,-0.7719 -0.409352,-1.51688 -0.625,-2.09375 z" />
    </g>
  </g>
</svg>
